<svg xmlns="http://www.w3.org/2000/svg" xmlns:xlink="http://www.w3.org/1999/xlink" width="400" zoomAndPan="magnify" viewBox="0 0 300 74.999997" height="100" preserveAspectRatio="xMidYMid meet" version="1.2"><defs/><g id="7da8ba35e7"><g style="fill:#ff9cc0;fill-opacity:1;"><g transform="translate(2.429693, 27.970063)"><path style="stroke:none" d="M 16.140625 -4.046875 C 16.140625 -3.972656 16.132812 -3.894531 16.125 -3.8125 C 16.125 -3.726562 16.125 -3.640625 16.125 -3.546875 C 16.125 -2.953125 16.175781 -2.519531 16.28125 -2.25 C 16.394531 -1.988281 16.628906 -1.859375 16.984375 -1.859375 C 17.242188 -1.859375 17.476562 -1.941406 17.6875 -2.109375 C 17.894531 -2.273438 18.078125 -2.5 18.234375 -2.78125 C 18.273438 -2.675781 18.316406 -2.5 18.359375 -2.25 C 18.410156 -2 18.4375 -1.734375 18.4375 -1.453125 C 18.4375 -1.304688 18.414062 -1.113281 18.375 -0.875 C 18.332031 -0.632812 18.238281 -0.40625 18.09375 -0.1875 C 17.945312 0.03125 17.71875 0.21875 17.40625 0.375 C 17.101562 0.539062 16.679688 0.625 16.140625 0.625 C 15.847656 0.625 15.535156 0.578125 15.203125 0.484375 C 14.878906 0.398438 14.582031 0.210938 14.3125 -0.078125 C 14.050781 -0.367188 13.828125 -0.785156 13.640625 -1.328125 C 13.460938 -1.867188 13.375 -2.59375 13.375 -3.5 L 13.375 -3.953125 C 13.070312 -3.941406 12.765625 -3.929688 12.453125 -3.921875 C 12.140625 -3.910156 11.851562 -3.894531 11.59375 -3.875 C 11.332031 -3.863281 11.109375 -3.851562 10.921875 -3.84375 C 10.734375 -3.84375 10.617188 -3.84375 10.578125 -3.84375 L 10.578125 -5.59375 C 10.578125 -6.320312 10.578125 -7.085938 10.578125 -7.890625 C 10.578125 -8.691406 10.578125 -9.492188 10.578125 -10.296875 C 10.585938 -11.097656 10.597656 -11.867188 10.609375 -12.609375 C 10.617188 -13.359375 10.628906 -14.019531 10.640625 -14.59375 L 12.515625 -14.5625 L 17.15625 -14.734375 C 17.1875 -13.898438 17.207031 -13.019531 17.21875 -12.09375 C 17.226562 -11.175781 17.242188 -10.25 17.265625 -9.3125 C 17.285156 -8.382812 17.296875 -7.46875 17.296875 -6.5625 C 17.304688 -5.65625 17.3125 -4.800781 17.3125 -4 Z M 5.203125 -0.28125 L 5.296875 -1.90625 C 4.941406 -1.59375 4.601562 -1.375 4.28125 -1.25 C 3.957031 -1.132812 3.664062 -1.078125 3.40625 -1.078125 C 3.082031 -1.078125 2.800781 -1.132812 2.5625 -1.25 C 2.332031 -1.375 2.164062 -1.503906 2.0625 -1.640625 C 3.207031 -2.335938 4.210938 -3.007812 5.078125 -3.65625 L 5.09375 -3.90625 L 2.5625 -3.796875 L 2.6875 -5.125 C 2.976562 -5.144531 3.316406 -5.164062 3.703125 -5.1875 C 4.085938 -5.207031 4.492188 -5.234375 4.921875 -5.265625 L 4.9375 -6.15625 L 6.9375 -6.140625 L 6.921875 -5.3125 C 7.179688 -5.332031 7.4375 -5.34375 7.6875 -5.34375 C 7.945312 -5.34375 8.191406 -5.34375 8.421875 -5.34375 L 8.921875 -5.34375 L 9.125 -4.359375 L 6.8125 -4.28125 L 6.8125 -3.296875 C 6.8125 -2.804688 6.804688 -2.300781 6.796875 -1.78125 C 6.796875 -1.269531 6.789062 -0.816406 6.78125 -0.421875 Z M 2.015625 -12.125 L 2.21875 -13.875 L 4.125 -13.9375 L 4.21875 -15.640625 L 7.515625 -15.28125 C 7.460938 -15.007812 7.398438 -14.726562 7.328125 -14.4375 C 7.253906 -14.144531 7.1875 -13.859375 7.125 -13.578125 C 7.507812 -13.578125 7.90625 -13.570312 8.3125 -13.5625 C 8.71875 -13.5625 9.070312 -13.554688 9.375 -13.546875 L 9.5625 -12.21875 Z M 2.046875 -6.765625 L 2.21875 -8.265625 C 2.644531 -8.285156 3.128906 -8.304688 3.671875 -8.328125 C 4.222656 -8.359375 4.796875 -8.382812 5.390625 -8.40625 C 5.992188 -8.425781 6.597656 -8.441406 7.203125 -8.453125 C 7.816406 -8.472656 8.390625 -8.484375 8.921875 -8.484375 L 9.421875 -8.484375 L 9.5625 -7.0625 Z M 13 -2.1875 C 12.863281 -1.882812 12.675781 -1.570312 12.4375 -1.25 C 12.207031 -0.925781 11.9375 -0.625 11.625 -0.34375 C 11.3125 -0.0703125 10.96875 0.148438 10.59375 0.328125 C 10.226562 0.503906 9.832031 0.59375 9.40625 0.59375 C 9.070312 0.59375 8.742188 0.539062 8.421875 0.4375 C 8.109375 0.332031 7.828125 0.15625 7.578125 -0.09375 C 8.054688 -0.300781 8.484375 -0.519531 8.859375 -0.75 C 9.234375 -0.976562 9.5625 -1.21875 9.84375 -1.46875 C 10.125 -1.71875 10.367188 -1.976562 10.578125 -2.25 C 10.796875 -2.519531 10.988281 -2.800781 11.15625 -3.09375 Z M 8.703125 -11 C 8.648438 -10.8125 8.597656 -10.628906 8.546875 -10.453125 C 8.484375 -10.304688 8.421875 -10.15625 8.359375 -10 C 8.296875 -9.84375 8.222656 -9.707031 8.140625 -9.59375 C 7.960938 -9.351562 7.703125 -9.179688 7.359375 -9.078125 C 7.015625 -8.984375 6.679688 -8.9375 6.359375 -8.9375 C 6.054688 -8.9375 5.816406 -8.972656 5.640625 -9.046875 C 5.691406 -9.171875 5.75 -9.375 5.8125 -9.65625 C 5.882812 -9.945312 5.953125 -10.25 6.015625 -10.5625 C 6.097656 -10.90625 6.1875 -11.285156 6.28125 -11.703125 Z M 11.921875 -12.8125 L 11.875 -10.40625 C 12.226562 -10.375 12.609375 -10.34375 13.015625 -10.3125 C 13.429688 -10.289062 13.820312 -10.257812 14.1875 -10.21875 C 14.164062 -10.6875 14.15625 -11.125 14.15625 -11.53125 C 14.15625 -11.945312 14.15625 -12.332031 14.15625 -12.6875 Z M 11.8125 -6.703125 C 11.8125 -6.390625 11.804688 -6.097656 11.796875 -5.828125 C 11.796875 -5.566406 11.789062 -5.320312 11.78125 -5.09375 L 14.234375 -5.015625 C 14.234375 -5.253906 14.226562 -5.515625 14.21875 -5.796875 C 14.21875 -6.085938 14.21875 -6.398438 14.21875 -6.734375 Z M 14.1875 -9.21875 L 11.875 -9.375 L 11.84375 -7.734375 C 12.1875 -7.765625 12.570312 -7.78125 13 -7.78125 C 13.425781 -7.789062 13.828125 -7.796875 14.203125 -7.796875 Z M 4.015625 -11.375 C 4.140625 -11.269531 4.257812 -11.160156 4.375 -11.046875 C 4.488281 -10.929688 4.585938 -10.820312 4.671875 -10.71875 C 4.753906 -10.613281 4.816406 -10.507812 4.859375 -10.40625 C 4.898438 -10.28125 4.921875 -10.148438 4.921875 -10.015625 C 4.921875 -9.828125 4.882812 -9.644531 4.8125 -9.46875 C 4.738281 -9.300781 4.617188 -9.160156 4.453125 -9.046875 C 4.378906 -9.117188 4.257812 -9.226562 4.09375 -9.375 C 3.925781 -9.519531 3.753906 -9.664062 3.578125 -9.8125 C 3.378906 -9.988281 3.164062 -10.171875 2.9375 -10.359375 Z M 7.296875 -2.4375 L 8.078125 -3.6875 C 8.304688 -3.5625 8.492188 -3.445312 8.640625 -3.34375 C 8.796875 -3.25 8.921875 -3.15625 9.015625 -3.0625 C 9.109375 -2.96875 9.171875 -2.863281 9.203125 -2.75 C 9.242188 -2.644531 9.265625 -2.515625 9.265625 -2.359375 C 9.265625 -2.210938 9.242188 -2.070312 9.203125 -1.9375 C 9.160156 -1.800781 9.09375 -1.679688 9 -1.578125 Z M 7.296875 -2.4375 "/></g></g><g style="fill:#ff9cc0;fill-opacity:1;"><g transform="translate(21.421814, 27.970063)"><path style="stroke:none" d="M 11.734375 -4.65625 L 11.6875 -1.84375 C 11.65625 -1.15625 11.453125 -0.648438 11.078125 -0.328125 C 10.703125 -0.015625 10.28125 0.140625 9.8125 0.140625 C 9.394531 0.140625 8.988281 0.015625 8.59375 -0.234375 C 8.195312 -0.492188 7.929688 -0.867188 7.796875 -1.359375 L 8.6875 -1.6875 L 8.625 -4.515625 L 3.203125 -4.296875 L 3.296875 -5.765625 C 4.003906 -5.816406 4.820312 -5.863281 5.75 -5.90625 C 6.675781 -5.957031 7.617188 -6.007812 8.578125 -6.0625 L 8.515625 -8.3125 L 11.84375 -8.359375 L 11.796875 -6.578125 C 12.234375 -6.609375 12.675781 -6.628906 13.125 -6.640625 C 13.570312 -6.648438 14 -6.664062 14.40625 -6.6875 C 14.8125 -6.707031 15.1875 -6.71875 15.53125 -6.71875 C 15.875 -6.726562 16.148438 -6.734375 16.359375 -6.734375 L 16.625 -6.734375 L 16.921875 -4.875 Z M 11.375 -11.359375 L 4.8125 -11.953125 L 5.234375 -14.78125 C 5.890625 -14.726562 6.65625 -14.664062 7.53125 -14.59375 C 8.40625 -14.519531 9.296875 -14.4375 10.203125 -14.34375 C 11.117188 -14.257812 12.015625 -14.171875 12.890625 -14.078125 C 13.765625 -13.992188 14.53125 -13.921875 15.1875 -13.859375 C 15.1875 -13.179688 15.109375 -12.566406 14.953125 -12.015625 C 14.796875 -11.460938 14.546875 -10.988281 14.203125 -10.59375 C 13.867188 -10.195312 13.425781 -9.890625 12.875 -9.671875 C 12.320312 -9.460938 11.648438 -9.351562 10.859375 -9.34375 Z M 11.375 -11.359375 "/></g></g><g style="fill:#ff9cc0;fill-opacity:1;"><g transform="translate(40.413935, 27.970063)"><path style="stroke:none" d="M 11.734375 -4.65625 L 11.6875 -1.84375 C 11.65625 -1.15625 11.453125 -0.648438 11.078125 -0.328125 C 10.703125 -0.015625 10.28125 0.140625 9.8125 0.140625 C 9.394531 0.140625 8.988281 0.015625 8.59375 -0.234375 C 8.195312 -0.492188 7.929688 -0.867188 7.796875 -1.359375 L 8.6875 -1.6875 L 8.625 -4.515625 L 3.203125 -4.296875 L 3.296875 -5.765625 C 4.003906 -5.816406 4.820312 -5.863281 5.75 -5.90625 C 6.675781 -5.957031 7.617188 -6.007812 8.578125 -6.0625 L 8.515625 -8.3125 L 11.84375 -8.359375 L 11.796875 -6.578125 C 12.234375 -6.609375 12.675781 -6.628906 13.125 -6.640625 C 13.570312 -6.648438 14 -6.664062 14.40625 -6.6875 C 14.8125 -6.707031 15.1875 -6.71875 15.53125 -6.71875 C 15.875 -6.726562 16.148438 -6.734375 16.359375 -6.734375 L 16.625 -6.734375 L 16.921875 -4.875 Z M 11.375 -11.359375 L 4.8125 -11.953125 L 5.234375 -14.78125 C 5.890625 -14.726562 6.65625 -14.664062 7.53125 -14.59375 C 8.40625 -14.519531 9.296875 -14.4375 10.203125 -14.34375 C 11.117188 -14.257812 12.015625 -14.171875 12.890625 -14.078125 C 13.765625 -13.992188 14.53125 -13.921875 15.1875 -13.859375 C 15.1875 -13.179688 15.109375 -12.566406 14.953125 -12.015625 C 14.796875 -11.460938 14.546875 -10.988281 14.203125 -10.59375 C 13.867188 -10.195312 13.425781 -9.890625 12.875 -9.671875 C 12.320312 -9.460938 11.648438 -9.351562 10.859375 -9.34375 Z M 11.375 -11.359375 "/></g></g><g style="fill:#ff9cc0;fill-opacity:1;"><g transform="translate(59.406055, 27.970063)"><path style="stroke:none" d="M 15.28125 -1.078125 C 15.28125 -0.816406 15.21875 -0.582031 15.09375 -0.375 C 14.96875 -0.164062 14.800781 0.0078125 14.59375 0.15625 C 14.394531 0.300781 14.164062 0.414062 13.90625 0.5 C 13.644531 0.582031 13.382812 0.625 13.125 0.625 C 12.65625 0.625 12.222656 0.503906 11.828125 0.265625 C 11.429688 0.0234375 11.171875 -0.351562 11.046875 -0.875 L 11.6875 -1.078125 L 11.625 -1.921875 L 7.375 -1.875 C 7.363281 -1.488281 7.351562 -1.113281 7.34375 -0.75 C 7.34375 -0.394531 7.328125 -0.09375 7.296875 0.15625 L 5.28125 0.203125 C 5.28125 -0.0234375 5.285156 -0.296875 5.296875 -0.609375 C 5.304688 -0.929688 5.316406 -1.28125 5.328125 -1.65625 C 5.335938 -2.03125 5.347656 -2.421875 5.359375 -2.828125 C 5.367188 -3.234375 5.382812 -3.628906 5.40625 -4.015625 C 5.4375 -4.941406 5.46875 -5.910156 5.5 -6.921875 L 7.953125 -6.6875 L 15.1875 -6.9375 L 15.28125 -1.125 Z M 9.90625 -12.8125 C 9.84375 -12.601562 9.765625 -12.351562 9.671875 -12.0625 C 9.585938 -11.769531 9.429688 -11.492188 9.203125 -11.234375 C 8.984375 -10.984375 8.679688 -10.765625 8.296875 -10.578125 C 7.921875 -10.398438 7.425781 -10.3125 6.8125 -10.3125 C 6.519531 -10.3125 6.289062 -10.34375 6.125 -10.40625 C 6.1875 -10.664062 6.242188 -10.957031 6.296875 -11.28125 C 6.347656 -11.601562 6.398438 -11.914062 6.453125 -12.21875 L 2.625 -12.125 L 2.796875 -14.234375 C 3.453125 -14.265625 4.207031 -14.296875 5.0625 -14.328125 C 5.925781 -14.359375 6.835938 -14.390625 7.796875 -14.421875 L 7.453125 -15.734375 L 11.078125 -16.09375 C 11.085938 -15.832031 11.097656 -15.566406 11.109375 -15.296875 C 11.117188 -15.035156 11.125 -14.769531 11.125 -14.5 C 12.289062 -14.53125 13.40625 -14.550781 14.46875 -14.5625 C 15.53125 -14.582031 16.441406 -14.601562 17.203125 -14.625 L 17.5 -13.046875 Z M 14.046875 -9.734375 L 13.484375 -8.546875 C 12.972656 -8.523438 12.328125 -8.484375 11.546875 -8.421875 C 10.765625 -8.367188 9.945312 -8.300781 9.09375 -8.21875 C 8.238281 -8.132812 7.390625 -8.039062 6.546875 -7.9375 C 5.710938 -7.84375 4.984375 -7.742188 4.359375 -7.640625 L 3.65625 -9.515625 C 4.28125 -9.585938 5.015625 -9.648438 5.859375 -9.703125 C 6.703125 -9.753906 7.570312 -9.800781 8.46875 -9.84375 C 9.363281 -9.894531 10.253906 -9.941406 11.140625 -9.984375 C 12.035156 -10.023438 12.835938 -10.050781 13.546875 -10.0625 L 12.515625 -10.703125 L 14.1875 -12.578125 C 14.488281 -12.421875 14.765625 -12.257812 15.015625 -12.09375 C 15.242188 -11.945312 15.472656 -11.789062 15.703125 -11.625 C 15.929688 -11.457031 16.101562 -11.289062 16.21875 -11.125 C 16.488281 -10.757812 16.625 -10.367188 16.625 -9.953125 C 16.625 -9.679688 16.566406 -9.414062 16.453125 -9.15625 C 16.347656 -8.90625 16.203125 -8.679688 16.015625 -8.484375 Z M 11.34375 -5.78125 L 7.4375 -5.5625 L 7.4375 -5.265625 C 7.4375 -5.148438 7.429688 -5.03125 7.421875 -4.90625 C 7.421875 -4.78125 7.421875 -4.640625 7.421875 -4.484375 L 11.4375 -4.40625 Z M 11.5 -3.5625 L 7.40625 -3.65625 L 7.40625 -2.765625 L 11.5625 -2.796875 Z M 11.5 -3.5625 "/></g></g><g style="fill:#ff9cc0;fill-opacity:1;"><g transform="translate(78.398176, 27.970063)"><path style="stroke:none" d="M 2.421875 -11.234375 C 3.484375 -11.304688 4.582031 -11.378906 5.71875 -11.453125 C 6.863281 -11.535156 7.957031 -11.578125 9 -11.578125 C 9.707031 -11.578125 10.367188 -11.546875 10.984375 -11.484375 C 11.597656 -11.429688 12.128906 -11.328125 12.578125 -11.171875 C 13.023438 -11.015625 13.375 -10.804688 13.625 -10.546875 C 13.882812 -10.285156 14.015625 -9.953125 14.015625 -9.546875 C 14.015625 -9.503906 14.007812 -9.460938 14 -9.421875 C 14 -9.378906 14 -9.335938 14 -9.296875 C 13.320312 -9.191406 12.753906 -9.082031 12.296875 -8.96875 C 11.847656 -8.851562 11.476562 -8.671875 11.1875 -8.421875 C 10.613281 -7.941406 10.195312 -7.414062 9.9375 -6.84375 C 9.6875 -6.28125 9.5625 -5.734375 9.5625 -5.203125 C 9.5625 -4.859375 9.609375 -4.535156 9.703125 -4.234375 C 9.804688 -3.929688 9.945312 -3.664062 10.125 -3.4375 C 10.3125 -3.207031 10.53125 -3.023438 10.78125 -2.890625 C 11.03125 -2.765625 11.3125 -2.703125 11.625 -2.703125 C 11.78125 -2.703125 11.945312 -2.722656 12.125 -2.765625 C 12.1875 -2.554688 12.21875 -2.378906 12.21875 -2.234375 C 12.21875 -2.128906 12.195312 -2 12.15625 -1.84375 C 12.125 -1.695312 12.039062 -1.550781 11.90625 -1.40625 C 11.769531 -1.257812 11.570312 -1.132812 11.3125 -1.03125 C 11.050781 -0.925781 10.707031 -0.875 10.28125 -0.875 C 9.75 -0.875 9.238281 -0.988281 8.75 -1.21875 C 8.257812 -1.457031 7.832031 -1.78125 7.46875 -2.1875 C 7.101562 -2.601562 6.8125 -3.082031 6.59375 -3.625 C 6.382812 -4.175781 6.28125 -4.757812 6.28125 -5.375 C 6.28125 -5.96875 6.382812 -6.566406 6.59375 -7.171875 C 6.8125 -7.785156 7.160156 -8.398438 7.640625 -9.015625 C 7.691406 -9.085938 7.734375 -9.132812 7.765625 -9.15625 C 7.804688 -9.1875 7.828125 -9.210938 7.828125 -9.234375 C 7.828125 -9.253906 7.757812 -9.265625 7.625 -9.265625 C 7.40625 -9.265625 7.0625 -9.269531 6.59375 -9.28125 C 6.132812 -9.289062 5.644531 -9.296875 5.125 -9.296875 C 4.613281 -9.304688 4.117188 -9.320312 3.640625 -9.34375 C 3.160156 -9.363281 2.785156 -9.382812 2.515625 -9.40625 Z M 2.421875 -11.234375 "/></g></g><g style="fill:#ff9cc0;fill-opacity:1;"><g transform="translate(93.991631, 27.970063)"><path style="stroke:none" d="M 7.125 -11.15625 C 7.050781 -9.59375 6.941406 -8.1875 6.796875 -6.9375 C 6.660156 -5.6875 6.441406 -4.601562 6.140625 -3.6875 C 6.046875 -3.382812 5.894531 -3.109375 5.6875 -2.859375 C 5.476562 -2.617188 5.226562 -2.40625 4.9375 -2.21875 C 4.65625 -2.039062 4.34375 -1.898438 4 -1.796875 C 3.664062 -1.703125 3.316406 -1.65625 2.953125 -1.65625 C 2.898438 -1.65625 2.847656 -1.660156 2.796875 -1.671875 C 2.742188 -1.679688 2.691406 -1.6875 2.640625 -1.6875 C 2.816406 -2.6875 2.96875 -3.726562 3.09375 -4.8125 C 3.226562 -5.894531 3.335938 -6.96875 3.421875 -8.03125 C 3.515625 -9.09375 3.585938 -10.113281 3.640625 -11.09375 C 3.703125 -12.070312 3.742188 -12.960938 3.765625 -13.765625 L 7.203125 -13.484375 L 7.203125 -12.921875 L 9.421875 -13.046875 L 9.4375 -15.546875 L 13.0625 -15.375 C 13.03125 -15.132812 12.988281 -14.890625 12.9375 -14.640625 C 12.894531 -14.410156 12.851562 -14.171875 12.8125 -13.921875 C 12.78125 -13.671875 12.738281 -13.429688 12.6875 -13.203125 C 13.363281 -13.222656 14.03125 -13.242188 14.6875 -13.265625 C 15.351562 -13.296875 16.03125 -13.328125 16.71875 -13.359375 L 17.046875 -11.625 Z M 14.8125 -2.578125 L 14.5 -1.3125 C 14.082031 -1.257812 13.609375 -1.191406 13.078125 -1.109375 C 12.554688 -1.035156 12.015625 -0.953125 11.453125 -0.859375 C 10.898438 -0.765625 10.351562 -0.664062 9.8125 -0.5625 C 9.28125 -0.46875 8.8125 -0.378906 8.40625 -0.296875 L 7.5625 -2.0625 C 8.007812 -2.144531 8.523438 -2.222656 9.109375 -2.296875 C 9.691406 -2.367188 10.296875 -2.4375 10.921875 -2.5 C 11.554688 -2.5625 12.1875 -2.625 12.8125 -2.6875 C 13.445312 -2.75 14.035156 -2.800781 14.578125 -2.84375 L 13.375 -4.078125 L 15.296875 -5.59375 C 15.421875 -5.488281 15.554688 -5.351562 15.703125 -5.1875 C 15.859375 -5.03125 16.015625 -4.863281 16.171875 -4.6875 C 16.335938 -4.507812 16.492188 -4.320312 16.640625 -4.125 C 16.785156 -3.9375 16.921875 -3.753906 17.046875 -3.578125 C 17.148438 -3.429688 17.21875 -3.269531 17.25 -3.09375 C 17.289062 -2.925781 17.3125 -2.75 17.3125 -2.5625 C 17.3125 -2.195312 17.242188 -1.851562 17.109375 -1.53125 C 16.972656 -1.207031 16.789062 -0.953125 16.5625 -0.765625 Z M 8.84375 -3.3125 C 8.957031 -3.769531 9.070312 -4.238281 9.1875 -4.71875 C 9.3125 -5.207031 9.425781 -5.695312 9.53125 -6.1875 C 9.632812 -6.675781 9.722656 -7.144531 9.796875 -7.59375 C 9.878906 -8.050781 9.945312 -8.472656 10 -8.859375 L 13.359375 -8.296875 C 13.296875 -7.921875 13.226562 -7.554688 13.15625 -7.203125 C 13.09375 -6.890625 13.015625 -6.554688 12.921875 -6.203125 C 12.835938 -5.859375 12.742188 -5.53125 12.640625 -5.21875 C 12.410156 -4.601562 12.003906 -4.128906 11.421875 -3.796875 C 10.847656 -3.472656 10.09375 -3.3125 9.15625 -3.3125 Z M 8.84375 -3.3125 "/></g></g><g style="fill:#ff9cc0;fill-opacity:1;"><g transform="translate(112.983752, 27.970063)"><path style="stroke:none" d="M 14.65625 -9.046875 C 13.800781 -9.054688 13.019531 -9.066406 12.3125 -9.078125 C 12.019531 -9.078125 11.726562 -9.078125 11.4375 -9.078125 C 11.144531 -9.085938 10.878906 -9.09375 10.640625 -9.09375 C 10.398438 -9.09375 10.195312 -9.09375 10.03125 -9.09375 C 9.875 -9.09375 9.773438 -9.09375 9.734375 -9.09375 L 9.734375 -9.546875 C 9.734375 -10.035156 9.738281 -10.597656 9.75 -11.234375 C 9.769531 -11.867188 9.785156 -12.476562 9.796875 -13.0625 C 9.804688 -13.738281 9.820312 -14.429688 9.84375 -15.140625 L 11.875 -15.015625 L 17 -15.1875 C 17 -14.875 17.003906 -14.539062 17.015625 -14.1875 C 17.035156 -13.875 17.046875 -13.507812 17.046875 -13.09375 C 17.046875 -12.6875 17.046875 -12.242188 17.046875 -11.765625 C 17.046875 -11.296875 17.046875 -10.8125 17.046875 -10.3125 C 17.046875 -9.8125 17.03125 -9.3125 17 -8.8125 Z M 8.234375 -4.046875 C 7.441406 -3.867188 6.550781 -3.660156 5.5625 -3.421875 C 4.570312 -3.191406 3.535156 -2.9375 2.453125 -2.65625 L 1.796875 -4.796875 L 3.921875 -5.234375 L 3.921875 -8.9375 L 2.09375 -9.015625 L 2.28125 -10.3125 C 2.550781 -10.3125 2.816406 -10.3125 3.078125 -10.3125 C 3.347656 -10.3125 3.628906 -10.304688 3.921875 -10.296875 L 3.9375 -14.375 L 6.90625 -14.28125 L 6.875 -10.203125 C 7.101562 -10.191406 7.328125 -10.179688 7.546875 -10.171875 C 7.765625 -10.160156 7.984375 -10.144531 8.203125 -10.125 L 8.28125 -8.796875 L 6.6875 -8.859375 L 6.640625 -5.375 C 6.921875 -5.445312 7.238281 -5.515625 7.59375 -5.578125 C 7.957031 -5.648438 8.273438 -5.703125 8.546875 -5.734375 Z M 14.59375 -0.8125 C 14.625 -1.269531 14.648438 -1.765625 14.671875 -2.296875 C 14.703125 -2.828125 14.734375 -3.378906 14.765625 -3.953125 L 12.234375 -4.1875 L 11.875 -3.8125 C 11.6875 -3.65625 11.457031 -3.539062 11.1875 -3.46875 C 10.914062 -3.394531 10.632812 -3.359375 10.34375 -3.359375 C 10.03125 -3.359375 9.726562 -3.394531 9.4375 -3.46875 C 9.15625 -3.539062 8.9375 -3.640625 8.78125 -3.765625 C 9.125 -4.128906 9.472656 -4.539062 9.828125 -5 C 10.191406 -5.457031 10.507812 -5.894531 10.78125 -6.3125 L 8.859375 -6.296875 L 9.015625 -7.484375 C 9.398438 -7.503906 9.9375 -7.523438 10.625 -7.546875 C 11.3125 -7.566406 12.050781 -7.582031 12.84375 -7.59375 C 13.644531 -7.613281 14.429688 -7.625 15.203125 -7.625 C 15.984375 -7.632812 16.660156 -7.640625 17.234375 -7.640625 L 18.09375 -7.640625 L 18.21875 -6.4375 L 11.9375 -6.34375 L 13.375 -5.546875 L 12.984375 -5 C 13.710938 -4.988281 14.492188 -4.972656 15.328125 -4.953125 C 16.160156 -4.929688 17.019531 -4.90625 17.90625 -4.875 C 17.875 -4.570312 17.84375 -4.238281 17.8125 -3.875 C 17.78125 -3.519531 17.742188 -3.15625 17.703125 -2.78125 C 17.660156 -2.414062 17.625 -2.0625 17.59375 -1.71875 C 17.5625 -1.382812 17.523438 -1.082031 17.484375 -0.8125 C 17.410156 -0.351562 17.203125 -0.015625 16.859375 0.203125 C 16.515625 0.429688 16.140625 0.546875 15.734375 0.546875 C 15.347656 0.546875 14.988281 0.441406 14.65625 0.234375 C 14.320312 0.0234375 14.117188 -0.269531 14.046875 -0.65625 Z M 12.78125 -13.765625 C 12.769531 -13.597656 12.765625 -13.429688 12.765625 -13.265625 C 12.765625 -13.117188 12.765625 -12.941406 12.765625 -12.734375 C 12.765625 -12.535156 12.753906 -12.320312 12.734375 -12.09375 C 13.160156 -12.070312 13.625 -12.039062 14.125 -12 C 14.625 -11.957031 15.109375 -11.90625 15.578125 -11.84375 C 15.585938 -12.082031 15.597656 -12.3125 15.609375 -12.53125 C 15.617188 -12.757812 15.628906 -12.960938 15.640625 -13.140625 C 15.648438 -13.335938 15.65625 -13.523438 15.65625 -13.703125 Z M 13.90625 -2.203125 C 13.738281 -1.648438 13.554688 -1.207031 13.359375 -0.875 C 13.171875 -0.539062 12.984375 -0.285156 12.796875 -0.109375 C 12.609375 0.0546875 12.425781 0.164062 12.25 0.21875 C 12.070312 0.269531 11.910156 0.296875 11.765625 0.296875 C 11.523438 0.296875 11.273438 0.242188 11.015625 0.140625 C 11.378906 -0.367188 11.6875 -0.867188 11.9375 -1.359375 C 12.1875 -1.847656 12.390625 -2.296875 12.546875 -2.703125 Z M 11.578125 -2.3125 C 11.566406 -2.289062 11.484375 -2.171875 11.328125 -1.953125 C 11.171875 -1.742188 10.976562 -1.519531 10.75 -1.28125 C 10.519531 -1.039062 10.253906 -0.820312 9.953125 -0.625 C 9.660156 -0.4375 9.367188 -0.34375 9.078125 -0.34375 C 8.773438 -0.34375 8.476562 -0.4375 8.1875 -0.625 C 8.632812 -1.007812 9.0625 -1.421875 9.46875 -1.859375 C 9.875 -2.296875 10.21875 -2.707031 10.5 -3.09375 Z M 15.546875 -11.046875 L 12.71875 -11.296875 C 12.71875 -11.035156 12.710938 -10.789062 12.703125 -10.5625 C 12.703125 -10.34375 12.695312 -10.175781 12.6875 -10.0625 L 15.5 -10 Z M 15.546875 -11.046875 "/></g></g><g style="fill:#eb2d79;fill-opacity:1;"><g transform="translate(-2.262946, 63.745059)"><path style="stroke:none" d="M 19.578125 2.875 C 18.796875 2.289062 18.082031 1.535156 17.4375 0.609375 C 15.695312 1.765625 13.945312 2.34375 12.1875 2.34375 C 11.488281 2.34375 10.878906 2.269531 10.359375 2.125 C 7.972656 1.488281 6.175781 0.257812 4.96875 -1.5625 C 3.769531 -3.394531 3.171875 -5.554688 3.171875 -8.046875 C 3.171875 -10.273438 3.632812 -12.519531 4.5625 -14.78125 C 5.488281 -17.050781 6.765625 -18.984375 8.390625 -20.578125 C 7.816406 -22.492188 7.351562 -24.289062 7 -25.96875 L 16.75 -28.0625 L 16.96875 -26.671875 C 17.132812 -25.453125 17.234375 -24.769531 17.265625 -24.625 C 18.835938 -24.851562 20.273438 -24.96875 21.578125 -24.96875 C 22.585938 -24.96875 23.675781 -24.894531 24.84375 -24.75 C 25.101562 -25.789062 25.316406 -27.050781 25.484375 -28.53125 L 33.578125 -26.796875 C 33.347656 -25.316406 32.941406 -23.707031 32.359375 -21.96875 C 34.078125 -20.832031 35.382812 -19.628906 36.28125 -18.359375 C 37.238281 -18.296875 38.09375 -18.140625 38.84375 -17.890625 C 39.59375 -17.648438 40.03125 -17.515625 40.15625 -17.484375 L 41.453125 -10.09375 C 40.753906 -10.351562 40 -10.515625 39.1875 -10.578125 C 39.25 -9.816406 39.28125 -9.265625 39.28125 -8.921875 C 39.28125 -6.773438 38.890625 -4.9375 38.109375 -3.40625 C 37.328125 -1.882812 36.3125 -0.75 35.0625 0 C 33.8125 0.75 32.476562 1.125 31.0625 1.125 C 29.550781 1.125 28.171875 0.707031 26.921875 -0.125 C 25.992188 -0.769531 25.238281 -1.53125 24.65625 -2.40625 C 24.082031 -3.289062 23.679688 -4.242188 23.453125 -5.265625 C 23.210938 -4.890625 22.992188 -4.570312 22.796875 -4.3125 C 23.492188 -2.363281 24.304688 -0.828125 25.234375 0.296875 Z M 19.96875 -12.921875 C 20.78125 -14.222656 21.546875 -15.726562 22.265625 -17.4375 C 21.140625 -17.4375 20.054688 -17.28125 19.015625 -16.96875 C 19.128906 -16.300781 19.445312 -14.953125 19.96875 -12.921875 Z M 13.65625 -6.171875 C 12.550781 -8.703125 11.722656 -10.75 11.171875 -12.3125 C 10.273438 -11.238281 9.828125 -10.179688 9.828125 -9.140625 C 9.828125 -8.234375 10.175781 -7.4375 10.875 -6.75 C 11.394531 -6.21875 11.972656 -5.953125 12.609375 -5.953125 C 12.929688 -5.953125 13.28125 -6.023438 13.65625 -6.171875 Z M 32.75 -5.953125 C 33.332031 -6.710938 33.625 -7.644531 33.625 -8.75 C 33.625 -9.15625 33.582031 -9.570312 33.5 -10 C 32.800781 -9.851562 32.160156 -9.65625 31.578125 -9.40625 C 31.003906 -9.164062 30.597656 -8.929688 30.359375 -8.703125 C 29.835938 -8.179688 29.578125 -7.613281 29.578125 -7 C 29.578125 -6.507812 29.75 -6.082031 30.09375 -5.71875 C 30.445312 -5.351562 30.851562 -5.171875 31.3125 -5.171875 C 31.863281 -5.171875 32.34375 -5.429688 32.75 -5.953125 Z M 32.75 -5.953125 "/></g></g><g style="fill:#eb2d79;fill-opacity:1;"><g transform="translate(41.23712, 63.745059)"><path style="stroke:none" d="M 31.890625 4.78125 C 26.671875 2.519531 21.710938 0.253906 17.015625 -2.015625 C 12.316406 -4.296875 9.238281 -6.101562 7.78125 -7.4375 L 8.171875 -17.015625 C 10.671875 -19.128906 14.347656 -21.769531 19.203125 -24.9375 C 24.054688 -28.113281 27.894531 -30.488281 30.71875 -32.0625 L 35.328125 -21.265625 C 31.035156 -19.671875 25.8125 -16.726562 19.65625 -12.4375 C 22.039062 -11.050781 24.242188 -9.914062 26.265625 -9.03125 C 28.296875 -8.144531 31.140625 -7.003906 34.796875 -5.609375 Z M 31.890625 4.78125 "/></g></g><g style="fill:#eb2d79;fill-opacity:1;"><g transform="translate(84.737185, 63.745059)"><path style="stroke:none" d="M 19.578125 2.875 C 18.796875 2.289062 18.082031 1.535156 17.4375 0.609375 C 15.695312 1.765625 13.945312 2.34375 12.1875 2.34375 C 11.488281 2.34375 10.878906 2.269531 10.359375 2.125 C 7.972656 1.488281 6.175781 0.257812 4.96875 -1.5625 C 3.769531 -3.394531 3.171875 -5.554688 3.171875 -8.046875 C 3.171875 -10.273438 3.632812 -12.519531 4.5625 -14.78125 C 5.488281 -17.050781 6.765625 -18.984375 8.390625 -20.578125 C 7.816406 -22.492188 7.351562 -24.289062 7 -25.96875 L 16.75 -28.0625 L 16.96875 -26.671875 C 17.132812 -25.453125 17.234375 -24.769531 17.265625 -24.625 C 18.835938 -24.851562 20.273438 -24.96875 21.578125 -24.96875 C 22.585938 -24.96875 23.675781 -24.894531 24.84375 -24.75 C 25.101562 -25.789062 25.316406 -27.050781 25.484375 -28.53125 L 33.578125 -26.796875 C 33.347656 -25.316406 32.941406 -23.707031 32.359375 -21.96875 C 34.078125 -20.832031 35.382812 -19.628906 36.28125 -18.359375 C 37.238281 -18.296875 38.09375 -18.140625 38.84375 -17.890625 C 39.59375 -17.648438 40.03125 -17.515625 40.15625 -17.484375 L 41.453125 -10.09375 C 40.753906 -10.351562 40 -10.515625 39.1875 -10.578125 C 39.25 -9.816406 39.28125 -9.265625 39.28125 -8.921875 C 39.28125 -6.773438 38.890625 -4.9375 38.109375 -3.40625 C 37.328125 -1.882812 36.3125 -0.75 35.0625 0 C 33.8125 0.75 32.476562 1.125 31.0625 1.125 C 29.550781 1.125 28.171875 0.707031 26.921875 -0.125 C 25.992188 -0.769531 25.238281 -1.53125 24.65625 -2.40625 C 24.082031 -3.289062 23.679688 -4.242188 23.453125 -5.265625 C 23.210938 -4.890625 22.992188 -4.570312 22.796875 -4.3125 C 23.492188 -2.363281 24.304688 -0.828125 25.234375 0.296875 Z M 19.96875 -12.921875 C 20.78125 -14.222656 21.546875 -15.726562 22.265625 -17.4375 C 21.140625 -17.4375 20.054688 -17.28125 19.015625 -16.96875 C 19.128906 -16.300781 19.445312 -14.953125 19.96875 -12.921875 Z M 13.65625 -6.171875 C 12.550781 -8.703125 11.722656 -10.75 11.171875 -12.3125 C 10.273438 -11.238281 9.828125 -10.179688 9.828125 -9.140625 C 9.828125 -8.234375 10.175781 -7.4375 10.875 -6.75 C 11.394531 -6.21875 11.972656 -5.953125 12.609375 -5.953125 C 12.929688 -5.953125 13.28125 -6.023438 13.65625 -6.171875 Z M 32.75 -5.953125 C 33.332031 -6.710938 33.625 -7.644531 33.625 -8.75 C 33.625 -9.15625 33.582031 -9.570312 33.5 -10 C 32.800781 -9.851562 32.160156 -9.65625 31.578125 -9.40625 C 31.003906 -9.164062 30.597656 -8.929688 30.359375 -8.703125 C 29.835938 -8.179688 29.578125 -7.613281 29.578125 -7 C 29.578125 -6.507812 29.75 -6.082031 30.09375 -5.71875 C 30.445312 -5.351562 30.851562 -5.171875 31.3125 -5.171875 C 31.863281 -5.171875 32.34375 -5.429688 32.75 -5.953125 Z M 32.75 -5.953125 "/></g></g><g style="fill:#eb2d79;fill-opacity:1;"><g transform="translate(128.237251, 63.745059)"><path style="stroke:none" d="M 31.890625 4.78125 C 26.671875 2.519531 21.710938 0.253906 17.015625 -2.015625 C 12.316406 -4.296875 9.238281 -6.101562 7.78125 -7.4375 L 8.171875 -17.015625 C 10.671875 -19.128906 14.347656 -21.769531 19.203125 -24.9375 C 24.054688 -28.113281 27.894531 -30.488281 30.71875 -32.0625 L 35.328125 -21.265625 C 31.035156 -19.671875 25.8125 -16.726562 19.65625 -12.4375 C 22.039062 -11.050781 24.242188 -9.914062 26.265625 -9.03125 C 28.296875 -8.144531 31.140625 -7.003906 34.796875 -5.609375 Z M 31.890625 4.78125 "/></g></g><g style="fill:#eb2d79;fill-opacity:1;"><g transform="translate(171.737316, 63.745059)"><path style="stroke:none" d="M 33.015625 -19.1875 C 31.078125 -19.882812 28.929688 -20.816406 26.578125 -21.984375 C 24.234375 -23.160156 22.25 -24.375 20.625 -25.625 L 24.140625 -32.109375 C 26.171875 -30.828125 28.113281 -29.800781 29.96875 -29.03125 C 31.820312 -28.269531 34.070312 -27.4375 36.71875 -26.53125 L 37.796875 -26.140625 Z M 16.875 -2.953125 C 18.96875 -2.953125 20.707031 -3.117188 22.09375 -3.453125 C 23.488281 -3.785156 24.507812 -4.21875 25.15625 -4.75 C 25.8125 -5.289062 26.140625 -5.851562 26.140625 -6.4375 C 26.140625 -7.1875 25.679688 -7.828125 24.765625 -8.359375 C 23.859375 -8.898438 22.664062 -9.171875 21.1875 -9.171875 C 19.882812 -9.171875 18.457031 -8.910156 16.90625 -8.390625 C 15.351562 -7.867188 13.765625 -7.046875 12.140625 -5.921875 L 7.21875 -10.578125 C 7.1875 -10.921875 7.171875 -11.5 7.171875 -12.3125 C 7.171875 -14.945312 7.429688 -17.988281 7.953125 -21.4375 C 8.484375 -24.894531 9.109375 -27.640625 9.828125 -29.671875 L 18.625 -28.96875 C 18.445312 -28.25 18.269531 -27.597656 18.09375 -27.015625 C 17.601562 -25.128906 17.25 -23.59375 17.03125 -22.40625 C 16.8125 -21.21875 16.601562 -19.503906 16.40625 -17.265625 C 18.019531 -17.554688 19.65625 -17.703125 21.3125 -17.703125 C 24.1875 -17.703125 26.796875 -17.238281 29.140625 -16.3125 C 31.492188 -15.382812 33.34375 -14.0625 34.6875 -12.34375 C 36.039062 -10.632812 36.71875 -8.648438 36.71875 -6.390625 C 36.71875 -3.054688 35.207031 -0.515625 32.1875 1.234375 C 29.175781 2.992188 25.015625 4.234375 19.703125 4.953125 Z M 16.875 -2.953125 "/></g></g><g style="fill:#eb2d79;fill-opacity:1;"><g transform="translate(215.237381, 63.745059)"><path style="stroke:none" d="M 4.125 1.34375 C 5.082031 -3.695312 6.285156 -9.476562 7.734375 -16 C 9.191406 -22.53125 10.441406 -27.289062 11.484375 -30.28125 L 21.015625 -28.0625 C 18.835938 -22.582031 17.171875 -17.753906 16.015625 -13.578125 C 16.585938 -14.296875 17.375 -14.953125 18.375 -15.546875 C 19.375 -16.140625 20.5 -16.4375 21.75 -16.4375 C 22.332031 -16.4375 22.925781 -16.351562 23.53125 -16.1875 C 24.78125 -15.863281 25.671875 -15.316406 26.203125 -14.546875 C 26.742188 -13.773438 27.203125 -12.769531 27.578125 -11.53125 C 27.867188 -10.65625 28.144531 -9.976562 28.40625 -9.5 C 28.664062 -9.019531 29.039062 -8.648438 29.53125 -8.390625 C 29.9375 -8.191406 30.359375 -8.09375 30.796875 -8.09375 C 31.578125 -8.09375 32.28125 -8.390625 32.90625 -8.984375 C 33.53125 -9.578125 33.972656 -10.28125 34.234375 -11.09375 L 40.578125 -5.4375 C 39.503906 -3.0625 38.046875 -1.109375 36.203125 0.421875 C 34.367188 1.960938 32.394531 2.734375 30.28125 2.734375 C 29.582031 2.734375 28.882812 2.648438 28.1875 2.484375 C 26.820312 2.128906 25.8125 1.585938 25.15625 0.859375 C 24.507812 0.140625 23.894531 -0.796875 23.3125 -1.953125 C 22.90625 -2.828125 22.515625 -3.492188 22.140625 -3.953125 C 21.765625 -4.421875 21.242188 -4.753906 20.578125 -4.953125 C 20.285156 -5.046875 19.976562 -5.09375 19.65625 -5.09375 C 18.9375 -5.09375 18.28125 -4.820312 17.6875 -4.28125 C 17.09375 -3.75 16.546875 -3.0625 16.046875 -2.21875 C 15.554688 -1.375 14.890625 -0.15625 14.046875 1.4375 L 13.4375 2.65625 Z M 4.125 1.34375 "/></g></g><g style="fill:#eb2d79;fill-opacity:1;"><g transform="translate(258.737447, 63.745059)"><path style="stroke:none" d="M 23.484375 -23.796875 L 23.015625 -31.625 L 30.28125 -31.921875 L 28.75 -23.09375 Z M 29.796875 -22.875 L 32.140625 -31.3125 L 38.40625 -29.140625 L 34.96875 -20.65625 Z M 34.140625 2.828125 C 29.566406 3.378906 25.941406 3.65625 23.265625 3.65625 C 18.972656 3.65625 15.414062 3.007812 12.59375 1.71875 C 9.769531 0.425781 8.050781 -1.859375 7.4375 -5.140625 C 7.320312 -5.710938 7.265625 -6.363281 7.265625 -7.09375 C 7.265625 -10.570312 8.90625 -14.09375 12.1875 -17.65625 C 8.5625 -21.34375 6.238281 -23.894531 5.21875 -25.3125 L 13.1875 -30.3125 C 15.007812 -28.289062 17.226562 -26.070312 19.84375 -23.65625 C 20.1875 -23.945312 20.851562 -24.367188 21.84375 -24.921875 L 21.921875 -23.65625 C 21.953125 -23.28125 22.085938 -22.953125 22.328125 -22.671875 C 22.578125 -22.398438 22.890625 -22.238281 23.265625 -22.1875 L 28.578125 -21.484375 L 28.96875 -21.484375 C 29 -21.398438 29.054688 -21.359375 29.140625 -21.359375 L 34.28125 -19.1875 C 34.425781 -19.09375 34.65625 -19.046875 34.96875 -19.046875 C 35.226562 -19.046875 35.429688 -19.09375 35.578125 -19.1875 C 35.835938 -19.332031 36 -19.460938 36.0625 -19.578125 L 36.28125 -19.1875 C 33.925781 -18.632812 31.316406 -17.691406 28.453125 -16.359375 C 29.492188 -15.546875 30.273438 -14.976562 30.796875 -14.65625 L 24.140625 -7.609375 C 23.992188 -7.671875 23.375 -7.984375 22.28125 -8.546875 C 21.195312 -9.109375 20.164062 -9.785156 19.1875 -10.578125 C 18.8125 -9.929688 18.625 -9.320312 18.625 -8.75 C 18.625 -6.71875 20.625 -5.703125 24.625 -5.703125 C 27.144531 -5.703125 30.332031 -6.09375 34.1875 -6.875 L 35.453125 2.703125 Z M 34.140625 2.828125 "/></g></g></g></svg>